<?xml version="1.0" encoding="utf-8"?>
<svg version="1.1" xmlns="http://www.w3.org/2000/svg" xmlns:xlink="http://www.w3.org/1999/xlink" x="0px" y="0px" viewBox="0 5 23 15" enable-background="new 0 5 23 15" xml:space="preserve">
<path fill="#575757" d="M20,20H3c-1.7,0-3-1.3-3-3V8c0-1.7,1.3-3,3-3h17c1.7,0,3,1.3,3,3v9C23,18.7,21.7,20,20,20z"/>
<rect x="3" y="9" fill="none" width="18" height="8"/>
<g enable-background="new">
	<path fill="#FFFFFF" d="M5.6,16.32c-0.46,0-0.907-0.144-1.34-0.43c-0.433-0.287-0.733-0.714-0.9-1.28L4.2,14.26 c0.106,0.374,0.283,0.664,0.53,0.87c0.247,0.207,0.537,0.311,0.87,0.311c0.373,0,0.695-0.117,0.965-0.351s0.405-0.523,0.405-0.87 c0-0.34-0.139-0.626-0.415-0.859C6.278,13.127,5.947,13.01,5.56,13.01H4.97v-0.86h0.52c0.36,0,0.658-0.101,0.895-0.3 c0.237-0.2,0.355-0.467,0.355-0.801c0-0.312-0.115-0.56-0.345-0.739C6.165,10.129,5.88,10.04,5.54,10.04 c-0.587,0-0.983,0.297-1.19,0.89L3.5,10.57c0.133-0.367,0.37-0.693,0.71-0.98c0.34-0.286,0.783-0.43,1.33-0.43 c0.613,0,1.123,0.179,1.53,0.535s0.61,0.809,0.61,1.354c0,0.66-0.307,1.15-0.92,1.471v0.04c0.333,0.14,0.608,0.354,0.825,0.64 c0.217,0.287,0.325,0.627,0.325,1.02c0,0.607-0.224,1.108-0.67,1.506C6.793,16.122,6.247,16.32,5.6,16.32z"/>
	<path fill="#FFFFFF" d="M11.26,11.79c0.533,0,1.023,0.219,1.47,0.655c0.446,0.437,0.67,0.965,0.67,1.585 c0,0.606-0.232,1.14-0.695,1.6s-1.012,0.69-1.645,0.69c-0.68,0-1.242-0.231-1.685-0.695C8.932,15.162,8.71,14.63,8.71,14.03 c0-0.634,0.267-1.34,0.8-2.121l1.86-2.75l0.739,0.51l-1.629,2.26l0.02,0.021C10.667,11.843,10.92,11.79,11.26,11.79z M11.06,15.43 c0.387,0,0.718-0.133,0.995-0.399c0.277-0.267,0.416-0.597,0.416-0.99c0-0.387-0.139-0.715-0.416-0.985 c-0.276-0.27-0.608-0.405-0.995-0.405s-0.72,0.135-1,0.405c-0.28,0.271-0.42,0.599-0.42,0.985c0,0.394,0.138,0.724,0.415,0.99 C10.332,15.297,10.667,15.43,11.06,15.43z"/>
	<path fill="#FFFFFF" d="M18.979,15.29c-0.507,0.687-1.17,1.03-1.989,1.03c-0.82,0-1.484-0.344-1.99-1.03 c-0.507-0.687-0.76-1.536-0.76-2.55c0-1.021,0.253-1.872,0.76-2.555c0.506-0.684,1.17-1.025,1.99-1.025 c0.819,0,1.482,0.342,1.989,1.025c0.507,0.683,0.761,1.534,0.761,2.555C19.74,13.754,19.486,14.604,18.979,15.29z M16.99,15.44 c0.546,0,0.984-0.257,1.314-0.771c0.33-0.513,0.495-1.156,0.495-1.93c0-0.78-0.165-1.425-0.495-1.936 c-0.33-0.51-0.769-0.765-1.314-0.765c-0.554,0-0.994,0.255-1.32,0.765c-0.326,0.511-0.49,1.155-0.49,1.936 c0,0.774,0.164,1.417,0.49,1.93C15.996,15.184,16.437,15.44,16.99,15.44z"/>
</g>
<g enable-background="new">
	<path fill="none" stroke="#FFFFFF" stroke-width="0.5" stroke-miterlimit="10" d="M5.6,16.32c-0.46,0-0.907-0.144-1.34-0.43 c-0.433-0.287-0.733-0.714-0.9-1.28L4.2,14.26c0.106,0.374,0.283,0.664,0.53,0.87c0.247,0.207,0.537,0.311,0.87,0.311 c0.373,0,0.695-0.117,0.965-0.351s0.405-0.523,0.405-0.87c0-0.34-0.139-0.626-0.415-0.859C6.278,13.127,5.947,13.01,5.56,13.01 H4.97v-0.86h0.52c0.36,0,0.658-0.101,0.895-0.3c0.237-0.2,0.355-0.467,0.355-0.801c0-0.312-0.115-0.56-0.345-0.739 C6.165,10.129,5.88,10.04,5.54,10.04c-0.587,0-0.983,0.297-1.19,0.89L3.5,10.57c0.133-0.367,0.37-0.693,0.71-0.98 c0.34-0.286,0.783-0.43,1.33-0.43c0.613,0,1.123,0.179,1.53,0.535s0.61,0.809,0.61,1.354c0,0.66-0.307,1.15-0.92,1.471v0.04 c0.333,0.14,0.608,0.354,0.825,0.64c0.217,0.287,0.325,0.627,0.325,1.02c0,0.607-0.224,1.108-0.67,1.506 C6.793,16.122,6.247,16.32,5.6,16.32z"/>
	<path fill="none" stroke="#FFFFFF" stroke-width="0.5" stroke-miterlimit="10" d="M11.26,11.79c0.533,0,1.023,0.219,1.47,0.655 c0.446,0.437,0.67,0.965,0.67,1.585c0,0.606-0.232,1.14-0.695,1.6s-1.012,0.69-1.645,0.69c-0.68,0-1.242-0.231-1.685-0.695 C8.932,15.162,8.71,14.63,8.71,14.03c0-0.634,0.267-1.34,0.8-2.121l1.86-2.75l0.739,0.51l-1.629,2.26l0.02,0.021 C10.667,11.843,10.92,11.79,11.26,11.79z M11.06,15.43c0.387,0,0.718-0.133,0.995-0.399c0.277-0.267,0.416-0.597,0.416-0.99 c0-0.387-0.139-0.715-0.416-0.985c-0.276-0.27-0.608-0.405-0.995-0.405s-0.72,0.135-1,0.405c-0.28,0.271-0.42,0.599-0.42,0.985 c0,0.394,0.138,0.724,0.415,0.99C10.332,15.297,10.667,15.43,11.06,15.43z"/>
	<path fill="none" stroke="#FFFFFF" stroke-width="0.5" stroke-miterlimit="10" d="M18.979,15.29c-0.507,0.687-1.17,1.03-1.989,1.03 c-0.82,0-1.484-0.344-1.99-1.03c-0.507-0.687-0.76-1.536-0.76-2.55c0-1.021,0.253-1.872,0.76-2.555 c0.506-0.684,1.17-1.025,1.99-1.025c0.819,0,1.482,0.342,1.989,1.025c0.507,0.683,0.761,1.534,0.761,2.555 C19.74,13.754,19.486,14.604,18.979,15.29z M16.99,15.44c0.546,0,0.984-0.257,1.314-0.771c0.33-0.513,0.495-1.156,0.495-1.93 c0-0.78-0.165-1.425-0.495-1.936c-0.33-0.51-0.769-0.765-1.314-0.765c-0.554,0-0.994,0.255-1.32,0.765 c-0.326,0.511-0.49,1.155-0.49,1.936c0,0.774,0.164,1.417,0.49,1.93C15.996,15.184,16.437,15.44,16.99,15.44z"/>
</g>
</svg>
